{
  "accessors": [
    {
      "bufferView": 2,
      "componentType": 5126,
      "count": 3545,
      "max": [
        0.06648395955562592,
        0.18378809094429016,
        0.08133860677480698
      ],
      "min": [
        -0.06649824976921082,
        0.0020621190778911114,
        -0.09361699968576431
      ],
      "type": "VEC3"
    },
    {
      "bufferView": 2,
      "byteOffset": 42540,
      "componentType": 5126,
      "count": 3545,
      "max": [
        0.9999997615814209,
        0.9997342228889465,
        0.999401330947876
      ],
      "min": [
        -0.9998626112937927,
        -0.9999892115592957,
        -0.9999306201934814
      ],
      "type": "VEC3"
    },
    {
      "bufferView": 3,
      "componentType": 5126,
      "count": 3545,
      "max": [
        0.9999995827674866,
        0.999881386756897,
        0.999925434589386,
        1.0
      ],
      "min": [
        -1.0,
        -0.9997930526733398,
        -0.9999592304229736,
        1.0
      ],
      "type": "VEC4"
    },
    {
      "bufferView": 1,
      "componentType": 5126,
      "count": 3545,
      "max": [
        0.980380654335022,
        0.9841874837875366
      ],
      "min": [
        0.01804717257618904,
        0.14124761521816254
      ],
      "type": "VEC2"
    },
    {
      "bufferView": 0,
      "componentType": 5125,
      "count": 18516,
      "type": "SCALAR"
    }
  ],
  "asset": {
    "extras": {
      "author": "Lippanen (https://sketchfab.com/jaakko.itapalo.edu)",
      "license": "CC-BY-4.0 (http://creativecommons.org/licenses/by/4.0/)",
      "source": "https://sketchfab.com/3d-models/low-poly-stylized-skull-e16ced15b6494e2297e2a1654767b2af",
      "title": "Low Poly Stylized Skull"
    },
    "generator": "Sketchfab-15.18.0",
    "version": "2.0"
  },
  "bufferViews": [
    {
      "buffer": 0,
      "byteLength": 74064,
      "name": "floatBufferViews",
      "target": 34963
    },
    {
      "buffer": 0,
      "byteLength": 28360,
      "byteOffset": 74064,
      "byteStride": 8,
      "name": "floatBufferViews",
      "target": 34962
    },
    {
      "buffer": 0,
      "byteLength": 85080,
      "byteOffset": 102424,
      "byteStride": 12,
      "name": "floatBufferViews",
      "target": 34962
    },
    {
      "buffer": 0,
      "byteLength": 56720,
      "byteOffset": 187504,
      "byteStride": 16,
      "name": "floatBufferViews",
      "target": 34962
    }
  ],
  "buffers": [
    {
      "byteLength": 244224,
      "uri": "scene.bin"
    }
  ],
  "extensionsUsed": [
    "KHR_materials_specular"
  ],
  "images": [
    {
      "uri": "textures/MT_Stylized_Skull_baseColor.png"
    },
    {
      "uri": "textures/MT_Stylized_Skull_metallicRoughness.png"
    },
    {
      "uri": "textures/MT_Stylized_Skull_normal.png"
    }
  ],
  "materials": [
    {
      "doubleSided": true,
      "extensions": {
        "KHR_materials_specular": {
          "specularColorFactor": [
            1.0,
            1.0,
            1.0
          ],
          "specularFactor": 0.08014361736231326
        }
      },
      "name": "MT_Stylized_Skull",
      "normalTexture": {
        "index": 2
      },
      "pbrMetallicRoughness": {
        "baseColorTexture": {
          "index": 0
        },
        "metallicFactor": 0.0,
        "metallicRoughnessTexture": {
          "index": 1
        }
      }
    }
  ],
  "meshes": [
    {
      "name": "MS_LP_Skull_MT_Stylized_Skull_0",
      "primitives": [
        {
          "attributes": {
            "NORMAL": 1,
            "POSITION": 0,
            "TANGENT": 2,
            "TEXCOORD_0": 3
          },
          "indices": 4,
          "material": 0,
          "mode": 4
        }
      ]
    }
  ],
  "nodes": [
    {
      "children": [
        1
      ],
      "matrix": [
        1.0,
        0.0,
        0.0,
        0.0,
        0.0,
        2.220446049250313e-16,
        -1.0,
        0.0,
        0.0,
        1.0,
        2.220446049250313e-16,
        0.0,
        0.0,
        0.0,
        0.0,
        1.0
      ],
      "name": "Sketchfab_model"
    },
    {
      "children": [
        2
      ],
      "matrix": [
        1.0,
        0.0,
        0.0,
        0.0,
        0.0,
        0.0,
        1.0,
        0.0,
        0.0,
        -1.0,
        0.0,
        0.0,
        0.0,
        0.0,
        0.0,
        1.0
      ],
      "name": "MS_Stylized_Skull.fbx"
    },
    {
      "children": [
        3
      ],
      "name": "RootNode"
    },
    {
      "children": [
        4
      ],
      "name": "MS_LP_Skull"
    },
    {
      "mesh": 0,
      "name": "MS_LP_Skull_MT_Stylized_Skull_0"
    }
  ],
  "samplers": [
    {
      "magFilter": 9729,
      "minFilter": 9987,
      "wrapS": 10497,
      "wrapT": 10497
    }
  ],
  "scene": 0,
  "scenes": [
    {
      "name": "Sketchfab_Scene",
      "nodes": [
        0
      ]
    }
  ],
  "textures": [
    {
      "sampler": 0,
      "source": 0
    },
    {
      "sampler": 0,
      "source": 1
    },
    {
      "sampler": 0,
      "source": 2
    }
  ]
}
